<svg xmlns="http://www.w3.org/2000/svg" viewBox="0 0 1280 720" role="img" aria-labelledby="title desc">
  <title id="title">Simplified fantasy campus map of Falconrise Keep</title>
  <desc id="desc">A fictionalized, simplified map inspired by broad public campus geometry: a central courtyard, main hall wings, detached SRACS tavern and yard, athletic grounds, courts, and fields.</desc>
  <defs>
    <radialGradient id="paperGlow" cx="50%" cy="42%" r="72%">
      <stop offset="0" stop-color="#efdca9" />
      <stop offset="1" stop-color="#a87545" />
    </radialGradient>
    <filter id="rough">
      <feTurbulence type="fractalNoise" baseFrequency="0.014" numOctaves="3" seed="22" />
      <feColorMatrix type="saturate" values="0.3" />
      <feBlend in="SourceGraphic" mode="multiply" />
    </filter>
    <pattern id="hatch" width="12" height="12" patternUnits="userSpaceOnUse" patternTransform="rotate(32)">
      <path d="M0 0 L0 12" stroke="#6b432b" stroke-width="2" opacity="0.24" />
    </pattern>
    <pattern id="cobbles" width="28" height="20" patternUnits="userSpaceOnUse">
      <path d="M0 10 H28 M14 0 V10 M0 20 H28" stroke="#7b5839" stroke-width="2" opacity="0.34" />
    </pattern>
  </defs>
  <rect width="1280" height="720" fill="url(#paperGlow)" />
  <rect width="1280" height="720" fill="#fff2c8" opacity="0.22" filter="url(#rough)" />

  <path d="M138 116 L1088 118 L1138 596 L168 628 Z" fill="#c89b5e" opacity="0.78" stroke="#50311f" stroke-width="8" />
  <path d="M178 158 L1044 158 L1088 560 L206 588 Z" fill="#b88450" opacity="0.35" stroke="#6b432b" stroke-width="3" stroke-dasharray="12 14" />

  <g fill="#5b3928" stroke="#2d1d17" stroke-width="4">
    <path d="M322 170 H730 V238 H604 V314 H328 Z" />
    <path d="M324 398 H734 V466 H322 Z" />
    <path d="M256 224 H334 V468 H258 Z" />
    <path d="M724 230 H804 V466 H728 Z" />
  </g>
  <rect x="368" y="262" width="314" height="112" rx="8" fill="#78905a" opacity="0.72" stroke="#2d1d17" stroke-width="4" />
  <path d="M396 318 C452 288 572 288 650 318 C590 346 470 348 396 318 Z" fill="#384d32" opacity="0.72" />
  <path d="M458 294 L532 262 L604 296 L574 356 L492 358 Z" fill="url(#hatch)" stroke="#2d1d17" stroke-width="3" opacity="0.82" />

  <g fill="#6c4a32" stroke="#2d1d17" stroke-width="4">
    <path d="M850 182 H1032 V260 H850 Z" />
    <path d="M838 164 L942 118 L1048 164 Z" fill="#3f3029" />
  </g>
  <rect x="842" y="286" width="214" height="84" rx="10" fill="url(#cobbles)" stroke="#2d1d17" stroke-width="4" />
  <path d="M866 326 H1032" stroke="#50311f" stroke-width="5" stroke-dasharray="16 12" opacity="0.54" />
  <g fill="#2d1d17" font-family="Georgia, serif" font-size="18" opacity="0.88">
    <text x="862" y="228">Phoenix Tavern</text>
    <text x="872" y="342">Wagon Yard</text>
  </g>

  <ellipse cx="488" cy="548" rx="238" ry="72" fill="#7d7a48" opacity="0.72" stroke="#684224" stroke-width="12" />
  <ellipse cx="488" cy="548" rx="176" ry="44" fill="none" stroke="#d4b164" stroke-width="5" stroke-dasharray="18 14" opacity="0.74" />

  <g fill="#7a5032" stroke="#2d1d17" stroke-width="4">
    <rect x="862" y="404" width="86" height="52" rx="4" />
    <rect x="964" y="404" width="86" height="52" rx="4" />
    <path d="M850 390 H1062 M850 470 H1062" fill="none" />
  </g>

  <g fill="#526b42" stroke="#2d1d17" stroke-width="4">
    <path d="M838 506 C914 468 1042 484 1090 548 C1028 600 904 602 830 558 Z" />
    <path d="M924 510 L998 548 L926 584" fill="none" />
  </g>

  <g fill="#31442f" opacity="0.88">
    <circle cx="230" cy="188" r="26" />
    <circle cx="204" cy="492" r="22" />
    <circle cx="780" cy="154" r="18" />
    <circle cx="1090" cy="406" r="26" />
    <circle cx="780" cy="562" r="22" />
    <circle cx="898" cy="146" r="20" />
  </g>

  <g fill="#2d1d17" opacity="0.94" font-family="Georgia, serif">
    <text x="82" y="74" font-size="38">Falconrise Keep</text>
    <text x="86" y="104" font-size="18">simplified adventure layout, not a real campus map</text>
    <text x="398" y="214" font-size="21">North Hall</text>
    <text x="366" y="452" font-size="21">South Hall</text>
    <text x="274" y="354" font-size="19" transform="rotate(-90 274 354)">West Wing</text>
    <text x="748" y="356" font-size="19" transform="rotate(-90 748 356)">East Wing</text>
    <text x="428" y="338" font-size="22">Central Courtyard</text>
    <text x="382" y="556" font-size="20">Tournament Track</text>
    <text x="868" y="438" font-size="18">Training Courts</text>
    <text x="884" y="552" font-size="18">Ball Fields</text>
  </g>

  <g transform="translate(1134 94)" fill="none" stroke="#2d1d17" stroke-width="4">
    <circle cx="0" cy="0" r="42" />
    <path d="M0 -30 L10 0 L0 30 L-10 0 Z" fill="#6b432b" />
    <text x="-12" y="-50" fill="#2d1d17" stroke="none" font-family="Georgia, serif" font-size="18">N</text>
  </g>
</svg>
